<svg width="13" height="14" viewBox="0 0 13 14" fill="none" xmlns="http://www.w3.org/2000/svg">
<path d="M8.66666 11.875V10.7917C8.66666 10.217 8.43838 9.66593 8.03205 9.2596C7.62573 8.85327 7.07463 8.625 6.49999 8.625H2.70832C2.13369 8.625 1.58259 8.85327 1.17626 9.2596C0.76993 9.66593 0.541656 10.217 0.541656 10.7917V11.875" stroke="white" stroke-linecap="round" stroke-linejoin="round"/>
<path d="M4.60417 6.45833C5.80078 6.45833 6.77083 5.48828 6.77083 4.29167C6.77083 3.09505 5.80078 2.125 4.60417 2.125C3.40755 2.125 2.4375 3.09505 2.4375 4.29167C2.4375 5.48828 3.40755 6.45833 4.60417 6.45833Z" stroke="white" stroke-linecap="round" stroke-linejoin="round"/>
<path d="M10.8333 4.8335V8.0835" stroke="white" stroke-linecap="round" stroke-linejoin="round"/>
<path d="M12.4583 6.4585H9.20834" stroke="white" stroke-linecap="round" stroke-linejoin="round"/>
</svg>
